<?xml version="1.0" standalone="no"?>
<!DOCTYPE svg PUBLIC "-//W3C//DTD SVG 20010904//EN"
 "http://www.w3.org/TR/2001/REC-SVG-20010904/DTD/svg10.dtd">
<svg version="1.0" xmlns="http://www.w3.org/2000/svg"
 width="599.000000pt" height="599.000000pt" viewBox="0 0 599.000000 599.000000"
 preserveAspectRatio="xMidYMid meet">
<metadata>
Created by potrace 1.14, written by Peter Selinger 2001-2017
</metadata>
<g transform="translate(0.000000,599.000000) scale(0.100000,-0.100000)"
fill="#000000" stroke="none">
<path d="M2885 5971 c-73 -26 -87 -35 -133 -85 -38 -42 -61 -80 -76 -129 -3
-9 -14 -20 -23 -23 -115 -35 -203 -91 -247 -158 -23 -35 -30 -39 -73 -42 -453
-31 -824 -357 -1040 -914 -80 -204 -144 -467 -169 -690 -3 -30 -7 -66 -9 -79
-30 -186 -24 -790 9 -1006 3 -16 8 -55 11 -85 3 -30 10 -82 16 -115 6 -33 12
-73 15 -90 3 -16 12 -64 20 -105 9 -41 18 -86 20 -100 53 -279 202 -712 345
-1000 96 -195 245 -436 344 -558 63 -77 86 -104 125 -147 158 -171 336 -314
510 -406 106 -57 321 -139 364 -139 9 0 16 -3 16 -8 0 -16 66 -82 82 -82 10 0
37 20 60 44 37 37 57 48 143 74 101 32 254 102 355 163 179 109 365 279 526
480 359 448 627 1089 749 1794 18 108 22 135 35 245 6 52 13 109 15 125 10 70
20 292 19 460 0 166 -11 442 -19 455 -1 3 -6 34 -9 70 -20 196 -84 473 -156
665 -179 483 -487 814 -849 914 -67 19 -111 26 -215 36 -24 2 -43 10 -49 20
-37 67 -128 135 -222 167 -27 9 -53 23 -56 30 -4 7 -13 29 -21 48 -24 55 -95
127 -155 156 -71 35 -184 42 -258 15z"/>
</g>
</svg>
